<svg xmlns="http://www.w3.org/2000/svg" xmlns:xlink="http://www.w3.org/1999/xlink" viewBox="0 0 3400 1000"><defs><style>.cls-1,.cls-14,.cls-15,.cls-16{fill:none;}.cls-2{isolation:isolate;}.cls-3,.cls-5{fill:#e51763;}.cls-4,.cls-6{fill:#0c93c1;}.cls-5,.cls-6{opacity:0.8;}.cls-7{fill:#868686;}.cls-11,.cls-12,.cls-13,.cls-7,.cls-8,.cls-9{opacity:0.5;}.cls-11,.cls-12,.cls-7,.cls-8,.cls-9{mix-blend-mode:multiply;}.cls-8{fill:#b1b1b1;}.cls-9{fill:#d9d9d9;}.cls-10{fill:#f5f5f5;opacity:0.1;mix-blend-mode:screen;}.cls-11{fill:#575756;}.cls-12{fill:#1d1d1b;}.cls-14,.cls-15,.cls-16{stroke:#273f43;stroke-linecap:round;stroke-linejoin:round;}.cls-14{stroke-width:2.5px;}.cls-15{stroke-width:5px;}.cls-16{stroke-width:10px;}.cls-17{clip-path:url(#clip-path);}.cls-18{opacity:0.2;mix-blend-mode:overlay;fill:url(#radial-gradient);}.cls-19{fill:#273f43;}</style><clipPath id="clip-path"><polyline class="cls-1" points="3362.04 3301.99 3659.92 3386.27 3619.07 3656.04 3377.37 3787.12 3185.87 3654.77 3165.87 3414.34"/></clipPath><radialGradient id="radial-gradient" cx="3305.78" cy="4532.5" r="8221.15" gradientUnits="userSpaceOnUse"><stop offset="0.08" stop-color="#fff"/><stop offset="0.1" stop-color="#fafafa" stop-opacity="0.98"/><stop offset="0.53" stop-color="#757575" stop-opacity="0.46"/><stop offset="0.83" stop-color="#212121" stop-opacity="0.13"/><stop offset="0.97" stop-opacity="0"/></radialGradient></defs><title>gradient_line2</title><g class="cls-2"><g id="kolor"><polygon class="cls-3" points="605.2 474.2 564.36 743.98 322.65 875.05 131.15 742.7 111.15 502.28 202.6 449.9 307.33 389.93 605.2 474.2"/><polygon class="cls-4" points="458.38 192.08 307.33 389.93 187.75 272.5 162.21 147.38 311.9 185.63 418.8 7.6 458.38 192.08"/></g><g id="grad-2" data-name="grad"><polygon class="cls-5" points="605.21 474.19 564.36 743.96 322.65 875.04 131.16 742.69 111.16 502.26 202.6 449.89 307.33 389.91 605.21 474.19"/><polygon class="cls-6" points="458.38 192.06 307.33 389.91 187.75 272.49 162.21 147.36 311.9 185.61 418.8 7.59 458.38 192.06"/><polygon class="cls-7" points="307.33 389.91 187.75 272.49 162.21 147.36 275.83 245.66 307.33 389.91"/><polygon class="cls-7" points="605.21 474.19 564.36 743.96 322.65 875.04 403.03 761.01 605.21 474.19"/><polygon class="cls-8" points="605.21 474.19 403.03 761.01 427.33 522.69 605.21 474.19"/><polygon class="cls-8" points="418.81 7.59 307.33 389.91 275.83 245.66 311.9 185.61 418.81 7.59"/><polygon class="cls-9" points="458.38 192.06 307.33 389.91 418.81 7.59 458.38 192.06"/><polygon class="cls-10" points="605.21 474.19 427.33 522.69 307.33 389.91 605.21 474.19"/><polygon class="cls-7" points="427.33 522.69 403.03 761.01 111.16 502.26 427.33 522.69"/><polygon class="cls-8" points="427.33 522.69 111.16 502.26 202.6 449.89 307.33 389.91 427.33 522.69"/><polygon class="cls-11" points="403.03 761.01 131.16 742.69 111.16 502.26 403.03 761.01"/><polygon class="cls-12" points="403.03 761.01 322.65 875.04 131.16 742.69 403.03 761.01"/><polygon class="cls-10" points="311.9 185.61 275.83 245.66 162.21 147.36 311.9 185.61"/><polyline class="cls-10" points="307.33 389.91 111.16 502.26 131.16 742.69 307.33 389.91"/></g><g id="kontur"><polyline class="cls-14" points="418.82 7.58 307.33 389.93 133.23 742.69"/><line class="cls-15" x1="187.76" y1="272.48" x2="307.33" y2="389.93"/><polyline class="cls-15" points="322.65 875.03 564.35 743.97 605.2 474.18"/><line class="cls-15" x1="403.03" y1="761" x2="322.65" y2="875.03"/><line class="cls-14" x1="605.2" y1="474.18" x2="403.03" y2="761"/><line class="cls-15" x1="111.16" y1="502.27" x2="427.33" y2="522.69"/><line class="cls-15" x1="403.03" y1="761" x2="111.16" y2="502.27"/><line class="cls-15" x1="427.33" y1="522.69" x2="403.03" y2="761"/><line class="cls-15" x1="131.17" y1="742.69" x2="403.03" y2="761"/><line class="cls-15" x1="275.84" y1="245.67" x2="307.33" y2="389.93"/><line class="cls-15" x1="418.82" y1="7.59" x2="275.84" y2="245.67"/><line class="cls-15" x1="458.39" y1="192.05" x2="418.82" y2="7.59"/><line class="cls-15" x1="427.33" y1="522.69" x2="307.33" y2="389.93"/><line class="cls-15" x1="605.2" y1="474.18" x2="427.33" y2="522.69"/><line class="cls-15" x1="307.33" y1="389.93" x2="605.2" y2="474.18"/><line class="cls-15" x1="111.16" y1="502.27" x2="307.33" y2="389.93"/><line class="cls-15" x1="131.17" y1="742.69" x2="111.16" y2="502.27"/><line class="cls-15" x1="322.65" y1="875.03" x2="131.17" y2="742.69"/><line class="cls-15" x1="162.22" y1="147.37" x2="187.76" y2="272.48"/><line class="cls-14" x1="275.84" y1="245.67" x2="162.22" y2="147.37"/><line class="cls-15" x1="162.22" y1="147.37" x2="311.91" y2="185.61"/><line class="cls-15" x1="307.33" y1="389.93" x2="458.39" y2="192.05"/><polyline class="cls-16" points="162.22 147.37 187.75 272.48 307.33 389.93"/><polyline class="cls-16" points="418.82 7.58 311.91 185.61 162.22 147.37"/><line class="cls-16" x1="458.39" y1="192.05" x2="418.82" y2="7.59"/><line class="cls-16" x1="307.33" y1="389.93" x2="458.39" y2="192.05"/><line class="cls-16" x1="605.2" y1="474.18" x2="307.33" y2="389.93"/><polyline class="cls-16" points="131.17 742.69 322.65 875.03 564.35 743.97 605.2 474.18"/><line class="cls-16" x1="131.17" y1="742.69" x2="111.16" y2="502.27"/><line class="cls-16" x1="307.33" y1="389.93" x2="111.16" y2="502.27"/></g><g id="połysk"><g class="cls-17"><polygon class="cls-18" points="3289.48 3731.97 4545.23 2087.14 4216.22 553.51 3289.48 3731.97"/></g></g><g id="txt"><path class="cls-19" d="M1545.25,301.75l-69.54,463.63H1366.18l-48.11-226-48.1,226H1160.44l-69.55-463.63h78.82L1219,679h7l64.32-306.58h55.64L1410.22,679h7l49.27-377.28Z"/><path class="cls-19" d="M1826.34,458.23v150.1h-136.2V699.9l10.44,8.69h46.94L1758,699.9V648.32h68.39V726l-46.95,39.4H1668.7L1621.76,726V458.23l48.68-40.57h107.22Zm-80,14.48h-44.62l-11.6,9.86v74.18H1758V482.57Z"/><path class="cls-19" d="M2139.29,455.33V726l-46.37,39.4h-70.7l-22.6-19.12-12.75,19.12h-52.74V301.75h69v130.4l19.12-15.65h70.7Zm-79.4,17.38h-46.36l-10.43,8.7V700.48l10.43,8.69h46.36l10.43-8.69V481.41Z"/><path class="cls-19" d="M2484.82,344.06V500.53l-33,27.82,33,27.82V722.5l-51,42.88H2289.51l-51-42.88V625.13h75.34v64.33l13.33,12.17h68.39l13.91-12.17V571.82l-12.75-11.59h-88.67V496.48h88.67l12.75-12.17V375.93l-13.91-12.17h-68.39l-13.33,12.17v59.69h-75.34V344.06l51-42.31h144.31Z"/><path class="cls-19" d="M2997.13,344.06V555l-51,42.89H2840.07V765.38h-75.34V301.75h181.4Zm-89.25,19.7h-67.81V535.31h67.81l13.91-11.6V375.93Z"/><path class="cls-19" d="M3105.49,371.29l-.58-34.19,20.29-18.54h33.61l20.29,18.54-.58,34.19-20.29,18h-33Zm1.74,46.37h69V765.38h-69Z"/></g></g></svg>