<svg xmlns="http://www.w3.org/2000/svg" xmlns:xlink="http://www.w3.org/1999/xlink" viewBox="0 0 3400 1000"><defs><style>.cls-1{fill:none;}.cls-2{isolation:isolate;}.cls-3{fill:#e51763;}.cls-4{fill:#0c93c1;}.cls-5{opacity:0.8;}.cls-14,.cls-6{opacity:0.5;}.cls-6{mix-blend-mode:multiply;}.cls-7{fill:#868686;}.cls-8{fill:#b1b1b1;}.cls-9{fill:#d9d9d9;}.cls-10{opacity:0.1;mix-blend-mode:screen;}.cls-11{fill:#f5f5f5;}.cls-12{fill:#575756;}.cls-13{fill:#1d1d1b;}.cls-15{fill:#273f43;}.cls-16{clip-path:url(#clip-path);}.cls-17{opacity:0.2;mix-blend-mode:overlay;fill:url(#radial-gradient);}.cls-18{fill:#fff;}</style><clipPath id="clip-path"><polyline class="cls-1" points="3362.04 3301.99 3659.92 3386.27 3619.07 3656.04 3377.37 3787.12 3185.87 3654.77 3165.87 3414.34"/></clipPath><radialGradient id="radial-gradient" cx="3305.78" cy="4532.5" r="8221.15" gradientUnits="userSpaceOnUse"><stop offset="0.08" stop-color="#fff"/><stop offset="0.1" stop-color="#fafafa" stop-opacity="0.98"/><stop offset="0.53" stop-color="#757575" stop-opacity="0.46"/><stop offset="0.83" stop-color="#212121" stop-opacity="0.13"/><stop offset="0.97" stop-opacity="0"/></radialGradient></defs><title>gradient_line2</title><g class="cls-2"><g id="kolor"><polygon class="cls-3" points="605.2 474.2 564.36 743.98 322.65 875.05 131.15 742.7 111.15 502.28 202.6 449.9 307.33 389.93 605.2 474.2"/><polygon class="cls-4" points="458.38 192.08 307.33 389.93 187.75 272.5 162.21 147.38 311.9 185.63 418.8 7.6 458.38 192.08"/></g><g id="grad-2" data-name="grad"><g class="cls-5"><polygon class="cls-3" points="605.21 474.19 564.36 743.96 322.65 875.04 131.16 742.69 111.16 502.26 202.6 449.89 307.33 389.91 605.21 474.19"/></g><g class="cls-5"><polygon class="cls-4" points="458.38 192.06 307.33 389.91 187.75 272.49 162.21 147.36 311.9 185.61 418.8 7.59 458.38 192.06"/></g><g class="cls-6"><polygon class="cls-7" points="307.33 389.91 187.75 272.49 162.21 147.36 275.83 245.66 307.33 389.91"/></g><g class="cls-6"><polygon class="cls-7" points="605.21 474.19 564.36 743.96 322.65 875.04 403.03 761.01 605.21 474.19"/></g><g class="cls-6"><polygon class="cls-8" points="605.21 474.19 403.03 761.01 427.33 522.69 605.21 474.19"/></g><g class="cls-6"><polygon class="cls-8" points="418.81 7.59 307.33 389.91 275.83 245.66 311.9 185.61 418.81 7.59"/></g><g class="cls-6"><polygon class="cls-9" points="458.38 192.06 307.33 389.91 418.81 7.59 458.38 192.06"/></g><g class="cls-10"><polygon class="cls-11" points="605.21 474.19 427.33 522.69 307.33 389.91 605.21 474.19"/></g><g class="cls-6"><polygon class="cls-7" points="427.33 522.69 403.03 761.01 111.16 502.26 427.33 522.69"/></g><g class="cls-6"><polygon class="cls-8" points="427.33 522.69 111.16 502.26 202.6 449.89 307.33 389.91 427.33 522.69"/></g><g class="cls-6"><polygon class="cls-12" points="403.03 761.01 131.16 742.69 111.16 502.26 403.03 761.01"/></g><g class="cls-6"><polygon class="cls-13" points="403.03 761.01 322.65 875.04 131.16 742.69 403.03 761.01"/></g><g class="cls-10"><polygon class="cls-11" points="311.9 185.61 275.83 245.66 162.21 147.36 311.9 185.61"/></g><g class="cls-10"><polyline class="cls-11" points="307.33 389.91 111.16 502.26 131.16 742.69 307.33 389.91"/></g></g><g id="kontur"><path class="cls-15" d="M133.23,743.94a1.23,1.23,0,0,1-.55-.13,1.25,1.25,0,0,1-.57-1.67L306.16,389.47,417.62,7.24a1.25,1.25,0,0,1,2.4.7L308.53,390.28a1.67,1.67,0,0,1-.08.2L134.35,743.24A1.23,1.23,0,0,1,133.23,743.94Z"/><path class="cls-15" d="M307.33,392.43a2.48,2.48,0,0,1-1.75-.72L186,274.26a2.5,2.5,0,1,1,3.51-3.56L309.08,388.14a2.5,2.5,0,0,1-1.75,4.29Z"/><path class="cls-15" d="M322.65,877.53a2.5,2.5,0,0,1-1.19-4.7L562.07,742.36l40.66-268.55a2.5,2.5,0,1,1,4.94.75L566.82,744.34a2.49,2.49,0,0,1-1.28,1.83L323.84,877.23A2.45,2.45,0,0,1,322.65,877.53Z"/><path class="cls-15" d="M322.65,877.53a2.55,2.55,0,0,1-1.44-.45,2.5,2.5,0,0,1-.6-3.49l80.37-114a2.5,2.5,0,0,1,4.09,2.88l-80.38,114A2.49,2.49,0,0,1,322.65,877.53Z"/><path class="cls-15" d="M403,762.25a1.24,1.24,0,0,1-.71-.22,1.26,1.26,0,0,1-.31-1.75L604.18,473.46a1.25,1.25,0,0,1,2,1.44L404.05,761.72A1.25,1.25,0,0,1,403,762.25Z"/><path class="cls-15" d="M427.33,525.19h-.16L111,504.76a2.5,2.5,0,1,1,.32-5L427.49,520.2a2.5,2.5,0,0,1-.16,5Z"/><path class="cls-15" d="M403,763.5a2.46,2.46,0,0,1-1.65-.62L109.5,504.14a2.5,2.5,0,1,1,3.32-3.74L404.68,759.13A2.5,2.5,0,0,1,403,763.5Z"/><path class="cls-15" d="M403,763.5h-.26a2.5,2.5,0,0,1-2.23-2.74l24.3-238.31a2.5,2.5,0,1,1,5,.51L405.51,761.26A2.49,2.49,0,0,1,403,763.5Z"/><path class="cls-15" d="M403,763.5h-.17L131,745.19a2.5,2.5,0,1,1,.33-5l271.86,18.31a2.5,2.5,0,0,1-.16,5Z"/><path class="cls-15" d="M307.33,392.43a2.5,2.5,0,0,1-2.44-2L273.4,246.2a2.5,2.5,0,0,1,4.88-1.06l31.49,144.25a2.5,2.5,0,0,1-1.91,3A2.46,2.46,0,0,1,307.33,392.43Z"/><path class="cls-15" d="M275.84,248.17a2.45,2.45,0,0,1-1.29-.36,2.5,2.5,0,0,1-.85-3.43L416.68,6.3A2.5,2.5,0,1,1,421,8.87L278,247A2.49,2.49,0,0,1,275.84,248.17Z"/><path class="cls-15" d="M458.39,194.55a2.5,2.5,0,0,1-2.44-2L416.37,8.11a2.5,2.5,0,0,1,4.89-1l39.58,184.47a2.5,2.5,0,0,1-1.92,3A2.44,2.44,0,0,1,458.39,194.55Z"/><path class="cls-15" d="M427.33,525.19a2.5,2.5,0,0,1-1.85-.82l-120-132.77a2.5,2.5,0,1,1,3.7-3.35L429.18,521a2.49,2.49,0,0,1-1.85,4.18Z"/><path class="cls-15" d="M427.33,525.19a2.5,2.5,0,0,1-.66-4.91l177.87-48.51a2.5,2.5,0,1,1,1.32,4.82L428,525.1A2.5,2.5,0,0,1,427.33,525.19Z"/><path class="cls-15" d="M605.2,476.68a2.71,2.71,0,0,1-.68-.09L306.65,392.33a2.5,2.5,0,1,1,1.36-4.81l297.87,84.26a2.5,2.5,0,0,1-.68,4.9Z"/><path class="cls-15" d="M111.16,504.77a2.5,2.5,0,0,1-1.24-4.67L306.09,387.76a2.5,2.5,0,1,1,2.48,4.34L112.4,504.44A2.53,2.53,0,0,1,111.16,504.77Z"/><path class="cls-15" d="M131.16,745.19a2.51,2.51,0,0,1-2.49-2.29l-20-240.43a2.5,2.5,0,0,1,5-.41l20,240.42a2.5,2.5,0,0,1-2.29,2.7Z"/><path class="cls-15" d="M322.65,877.53a2.48,2.48,0,0,1-1.42-.44L129.75,744.75a2.5,2.5,0,0,1,2.84-4.12L324.07,873a2.5,2.5,0,0,1-1.42,4.55Z"/><path class="cls-15" d="M187.75,275a2.5,2.5,0,0,1-2.44-2L159.77,147.87a2.5,2.5,0,1,1,4.9-1L190.2,272a2.5,2.5,0,0,1-1.94,2.95A2.94,2.94,0,0,1,187.75,275Z"/><path class="cls-15" d="M275.84,246.92a1.28,1.28,0,0,1-.82-.3l-113.61-98.3a1.25,1.25,0,0,1,1.63-1.89l113.62,98.3a1.25,1.25,0,0,1,.13,1.76A1.28,1.28,0,0,1,275.84,246.92Z"/><path class="cls-15" d="M311.91,188.11a2.7,2.7,0,0,1-.62-.08L161.6,149.79a2.5,2.5,0,0,1,1.24-4.84l149.69,38.24a2.5,2.5,0,0,1-.62,4.92Z"/><path class="cls-15" d="M307.33,392.43a2.51,2.51,0,0,1-2-4L456.41,190.54a2.5,2.5,0,1,1,4,3L309.32,391.44A2.5,2.5,0,0,1,307.33,392.43Z"/><path class="cls-15" d="M307.33,394.93a5,5,0,0,1-3.5-1.44L184.25,276.05a5,5,0,0,1-1.39-2.57L157.32,148.37a5,5,0,0,1,9.8-2L192.35,270,310.83,386.36a5,5,0,0,1-3.5,8.57Z"/><path class="cls-15" d="M311.91,190.61a4.8,4.8,0,0,1-1.24-.16L161,152.22a5,5,0,0,1,2.47-9.69l146.08,37.31L414.53,5a5,5,0,0,1,8.58,5.15l-106.91,178A5,5,0,0,1,311.91,190.61Z"/><path class="cls-15" d="M458.39,197.05a5,5,0,0,1-4.89-4L413.93,8.63a5,5,0,0,1,9.78-2.09L463.28,191a5,5,0,0,1-3.84,5.94A4.68,4.68,0,0,1,458.39,197.05Z"/><path class="cls-15" d="M307.33,394.93a5,5,0,0,1-4-8L454.42,189a5,5,0,1,1,7.95,6.07L311.3,393A5,5,0,0,1,307.33,394.93Z"/><path class="cls-15" d="M605.2,479.18a5,5,0,0,1-1.36-.19L306,394.74a5,5,0,0,1,2.72-9.63l297.87,84.26a5,5,0,0,1-1.36,9.81Z"/><path class="cls-15" d="M322.65,880a5,5,0,0,1-2.84-.88L128.32,746.8a5,5,0,1,1,5.69-8.22L323,869.17,559.78,740.76l40.48-267.33a5,5,0,0,1,9.89,1.5L569.29,744.72a5,5,0,0,1-2.56,3.64L325,879.43A5,5,0,0,1,322.65,880Z"/><path class="cls-15" d="M131.16,747.69a5,5,0,0,1-5-4.58l-20-240.43a5,5,0,1,1,10-.83l20,240.43a5,5,0,0,1-4.57,5.39A3,3,0,0,1,131.16,747.69Z"/><path class="cls-15" d="M111.16,507.27a5,5,0,0,1-2.49-9.34L304.84,385.59a5,5,0,1,1,5,8.67L113.64,506.61A5,5,0,0,1,111.16,507.27Z"/></g><g id="połysk"><g class="cls-16"><polygon class="cls-17" points="3289.48 3731.97 4545.23 2087.14 4216.22 553.51 3289.48 3731.97"/></g></g><g id="txt"><path class="cls-18" d="M1545.25,301.75l-69.54,463.63H1366.18l-48.11-226-48.1,226H1160.44l-69.55-463.63h78.82L1219,679h7l64.32-306.58h55.64L1410.22,679h7l49.27-377.28Z"/><path class="cls-18" d="M1826.34,458.23v150.1h-136.2V699.9l10.44,8.69h46.94L1758,699.9V648.32h68.39V726l-46.95,39.4H1668.7L1621.76,726V458.23l48.68-40.57h107.22Zm-80,14.48h-44.62l-11.6,9.86v74.18H1758V482.57Z"/><path class="cls-18" d="M2139.29,455.33V726l-46.37,39.4h-70.7l-22.6-19.12-12.75,19.12h-52.74V301.75h69v130.4l19.12-15.65h70.7Zm-79.4,17.38h-46.36l-10.43,8.7V700.48l10.43,8.69h46.36l10.43-8.69V481.41Z"/><path class="cls-18" d="M2484.82,344.06V500.53l-33,27.82,33,27.82V722.5l-51,42.88H2289.51l-51-42.88V625.13h75.34v64.33l13.33,12.17h68.39l13.91-12.17V571.82l-12.75-11.59h-88.67V496.48h88.67l12.75-12.17V375.93l-13.91-12.17h-68.39l-13.33,12.17v59.69h-75.34V344.06l51-42.31h144.31Z"/><path class="cls-18" d="M2997.13,344.06V555l-51,42.89H2840.07V765.38h-75.34V301.75h181.4Zm-89.25,19.7h-67.81V535.31h67.81l13.91-11.6V375.93Z"/><path class="cls-18" d="M3105.49,371.29l-.58-34.19,20.29-18.54h33.61l20.29,18.54-.58,34.19-20.29,18h-33Zm1.74,46.37h69V765.38h-69Z"/></g></g></svg>